<svg xmlns="http://www.w3.org/2000/svg" viewBox="0 0 32 32" fill="none">
  <!-- ExoSkull Favicon - simplified skull icon -->
  <path d="M16 2C8 2 3 8 3 15C3 20 5 24 9 26L9 29C9 30.5 10 31 11 31L13 31C14 31 14.5 30 14.5 29L14.5 28L15.5 28L15.5 29C15.5 30 16 31 16.5 31C17 31 17.5 30 17.5 29L17.5 28L18.5 28L18.5 29C18.5 30 19 31 20 31L22 31C23 31 24 30.5 24 29L24 26C28 24 30 20 30 15C30 8 25 2 16 2Z" fill="black"/>
  <text x="7" y="22" font-family="Arial Black,sans-serif" font-size="13" font-weight="900" fill="white" letter-spacing="-1">XO</text>
</svg>